<?xml version="1.0" encoding="utf-8"?>
<svg width="537" height="621" viewBox="0 0 537 621" fill="none" xmlns="http://www.w3.org/2000/svg">
<g clip-path="url(#clip0)">
<path d="M503.52 193.503C503.52 300.375 416.884 387.007 310.017 387.007C203.145 387.007 116.513 300.375 116.513 193.503C116.513 86.6364 203.145 0 310.017 0C416.884 0 503.52 86.6364 503.52 193.503Z" fill="#FF9500"/>
<path d="M310.017 0V387.012C416.888 387.012 503.52 300.375 503.52 193.503C503.52 86.6364 416.888 0 310.017 0V0Z" fill="#FE6A16"/>
<path d="M310.5 621H621V565.69C621 565.69 426.151 471.407 390.953 262.733C325.585 262.733 310.5 262.733 310.5 262.733C310.5 262.733 295.415 262.733 230.047 262.733C194.849 471.407 0 565.69 0 565.69V621H310.5Z" fill="#D6995C"/>
<path d="M310.5 621H621V565.69C621 565.69 426.151 471.407 390.953 262.733C325.585 262.733 310.5 262.733 310.5 262.733V621Z" fill="#C48958"/>
<path d="M274.232 354.633L310.495 383.093L346.759 354.633L383.027 383.093L418.973 354.884C406.47 327.087 396.634 296.4 390.953 262.728C325.585 262.728 310.5 262.728 310.5 262.728C310.5 262.728 295.415 262.728 230.046 262.728C224.366 296.4 214.525 327.087 202.022 354.884L237.963 383.093L274.232 354.633Z" fill="#F0F0F0"/>
<path d="M310.495 383.093L346.759 354.633L383.027 383.093L418.973 354.884C406.475 327.087 396.634 296.4 390.953 262.728C325.585 262.728 310.5 262.728 310.5 262.728L310.495 383.093Z" fill="#E4E4E4"/>
</g>
<defs>
<clipPath id="clip0">
<rect width="621" height="621" fill="white"/>
</clipPath>
</defs>
</svg>
