<?xml version="1.0" encoding="UTF-8"?> <svg xmlns="http://www.w3.org/2000/svg" width="41" height="41" viewBox="0 0 41 41" fill="none"><path d="M23.4085 11.0508V19.2932H17.5916V11.0508H23.4085Z" fill="#595959"></path><path d="M23.4085 11.0508V19.2932H20.5V11.0508H23.4085Z" fill="#383838"></path><path d="M3.09802 10.4333H7.24863V40.2699H3.09802V10.4333Z" fill="#F92814"></path><path d="M33.697 10.4333H37.8476V40.2699H33.697V10.4333Z" fill="#DB0404"></path><path d="M40.0134 8.07349V12.7931H0.986572V8.07349H40.0134Z" fill="#FFA426"></path><path d="M40.0134 8.07349V12.7931H20.5V8.07349H40.0134Z" fill="#FE6A16"></path><path d="M40.0134 17.5509V21.7012H0.986572V17.5509H40.0134Z" fill="#FF9500"></path><path d="M40.0134 17.5509V21.7012H20.5V17.5509H40.0134Z" fill="#FE6A16"></path><path d="M3.12524 0.800781V1.17271C3.12524 3.52907 2.311 5.81317 0.820488 7.63839L0 8.64281H41L40.1795 7.63839C38.689 5.81317 37.8748 3.52907 37.8748 1.17271V0.800781L3.12524 0.800781Z" fill="#DB0404"></path><path d="M20.5 0.800781V8.64281H41L40.1795 7.63839C38.689 5.81348 37.8748 3.52938 37.8748 1.17302V0.800781L20.5 0.800781Z" fill="#C10000"></path></svg> 