<?xml version="1.0" encoding="UTF-8"?>
<svg width="40" height="40" viewBox="0 0 40 40" fill="none" xmlns="http://www.w3.org/2000/svg">
<g clip-path="url(#clip0)">
<path d="M40 20C40 31.0458 31.0458 40 20 40C8.95416 40 0 31.0458 0 20C0 8.95416 8.95416 0 20 0C31.0458 0 40 8.95416 40 20Z" fill="#5C626B"/>
<path d="M0 20C0 30.9604 8.81683 39.8599 19.7446 39.9969C14.342 39.8615 10.0027 35.441 10 30.0055C9.99695 24.4824 14.4717 20.0031 19.9945 20H20C25.5228 20 30 15.5228 30 10C30 4.56329 25.6616 0.140076 20.2582 0.00335694C20.1721 0.00213623 20.0864 0 20 0C8.95416 0 0 8.95416 0 20Z" fill="#DFE0E0"/>
<path d="M20 40H20.0028C19.9579 40 19.9133 39.9991 19.8688 39.9985C19.9127 39.9985 19.9561 40 20 40Z" fill="#DFE0E0"/>
<path d="M2.41455 20C2.41455 9.4278 10.6177 0.772705 21.0062 0.0500488C20.7593 0.0253296 20.5099 0.00976562 20.2582 0.00335694C20.1721 0.00213623 20.0864 0 20 0C8.95416 0 0 8.95416 0 20C0 30.9604 8.81683 39.8599 19.7446 39.9969C17.8485 39.9493 16.0837 39.3732 14.5908 38.4113C7.43317 35.3659 2.41455 28.2693 2.41455 20Z" fill="#C9CACA"/>
<path d="M24.8489 10C24.8489 12.6779 22.6779 14.8489 20 14.8489C17.3221 14.8489 15.1511 12.6779 15.1511 10C15.1511 7.32208 17.3221 5.15106 20 5.15106C22.6779 5.15106 24.8489 7.32208 24.8489 10Z" fill="#5C626B"/>
<path d="M17.5653 10C17.5653 7.73865 19.1132 5.83893 21.2073 5.30243C20.8212 5.20355 20.4169 5.15106 20 5.15106C17.3221 5.15106 15.1511 7.32208 15.1511 10C15.1511 12.6779 17.3221 14.8489 20 14.8489C20.4169 14.8489 20.8212 14.7964 21.2073 14.6976C19.1132 14.1611 17.5653 12.2614 17.5653 10Z" fill="#535860"/>
<path d="M24.7061 30C24.7061 32.5992 22.5992 34.7061 20 34.7061C17.4008 34.7061 15.2939 32.5992 15.2939 30C15.2939 27.4008 17.4008 25.2939 20 25.2939C22.5992 25.2939 24.7061 27.4008 24.7061 30Z" fill="#DFE0E0"/>
<path d="M17.7081 30.0024C17.7072 27.8198 19.1922 25.9842 21.207 25.4507C20.8209 25.3485 20.4157 25.2936 19.9976 25.2939C17.3984 25.2951 15.2924 27.4033 15.2939 30.0024C15.2951 32.6016 17.4033 34.7076 20.0024 34.7061C20.419 34.7058 20.8228 34.6509 21.2073 34.5493C19.1943 34.0164 17.7094 32.1835 17.7081 30.0024Z" fill="#C9CACA"/>
</g>
<defs>
<clipPath id="clip0">
<rect width="40" height="40" fill="white"/>
</clipPath>
</defs>
</svg>
